<svg xmlns:xlink="http://www.w3.org/1999/xlink" xmlns="http://www.w3.org/2000/svg" width="217.745" height="167.451" viewBox="0 0 217.745 167.451">
  <g id="Group_20372" data-name="Group 20372" transform="translate(2071.803 -3485.427)">
    <path id="Path_34764" data-name="Path 34764" d="M115.454,134.676c4.258,9.288,10.042,18,16.684,26.572q.6.777,1.2,1.562l.38.5c.272.358.543.715.814,1.076.154.208.307.417.461.625.24.323.477.645.713.968.163.225.325.454.488.68.22.308.44.616.657.926.167.238.33.477.493.716.206.3.412.6.614.9.165.246.326.494.488.741.192.3.384.6.572.894.16.253.316.507.473.76q.27.445.534.889.226.385.444.773.253.447.5.894c.141.261.28.522.415.785.155.3.3.6.451.9.129.262.256.526.378.79.141.3.274.608.406.914.115.263.229.527.336.792.126.31.242.619.356.93.1.263.2.528.29.792.109.317.206.637.3.956.08.261.165.52.237.782.093.334.168.669.249,1.005.059.25.124.5.177.75.076.37.134.746.194,1.118.034.218.08.434.109.653.078.589.137,1.182.17,1.778,2.79,7.817,3.35,16.028-3.2,22.906-9.7,10.188-28.025,9.167-41.627,3.54-13.84-5.724-26.325-13.767-37.126-21.982a157.543,157.543,0,0,1-27.952-27.043q-1.949-2.447-3.765-4.943a2.4,2.4,0,0,1-.51-1.575q-.934-1.079-1.847-2.167-.95-1.132-1.874-2.275A142.856,142.856,0,0,1,12.345,131.4C-4.745,99.459-4.608,62.938,16,31.8,25.478,17.473,41.763,1.671,66.433.107c23.242-1.475,41.025,12.517,45.843,27.076,6.063,18.322-4.806,37.067-6.306,55.368a101.867,101.867,0,0,0,4.341,38.683,110.891,110.891,0,0,0,4.675,12.379C115.144,133.966,115.292,134.322,115.454,134.676Z" transform="translate(-2071.803 3643.878) rotate(-90)" fill="#ff0090" opacity="0.87"/>
    <g id="Group_20370" data-name="Group 20370" transform="matrix(0.978, 0.208, -0.208, 0.978, -2034.458, 3481.548)">
      <g id="Group_8731" data-name="Group 8731">
        <path id="Path_16715" data-name="Path 16715" d="M1966.262,835.272l-5.53-1.49a56.555,56.555,0,0,0,2.967-20.23c-.579-9.643-4.766-19.822-18.732-23.288-.587-.15-1.164-.273-1.74-.37-23.292-4.188-31.891,27.18-31.891,27.18l-5.441-2.769s8.167-35.065,38.189-30.377c1.079.159,2.175.38,3.306.652,15.78,3.806,20.734,15.733,21.628,27.053A69.027,69.027,0,0,1,1966.262,835.272Z" transform="translate(-1887.238 -783.498)" fill="#216cac"/>
        <path id="Path_16716" data-name="Path 16716" d="M1962.989,840.995s-1.432,7.752-5.74,24.24v.008q-.445,1.7-.932,3.532c-.251.973-.519,1.961-.788,2.98-5.652,20.972-9,30.341-9,30.341a2.9,2.9,0,0,1-3.547,2.045l-61.1-16.467a2.892,2.892,0,0,1-2.046-3.538s.86-6.256,7.468-30.76,9-30.349,9-30.349a2.892,2.892,0,0,1,3.538-2.038l6.542,1.76.077.027,54.491,14.673A2.9,2.9,0,0,1,1962.989,840.995Z" transform="translate(-1879.738 -794.221)" fill="#216cac"/>
        <path id="Path_29018" data-name="Path 29018" d="M1947.563,913.943l-47.8-12.878a2.26,2.26,0,0,1-1.595-2.771s.674-4.9,5.838-24.064,7.041-23.739,7.041-23.739a2.261,2.261,0,0,1,2.771-1.6l47.8,12.878a2.262,2.262,0,0,1,1.6,2.772s-1.418,7.654-5.838,24.063-7.04,23.74-7.04,23.74A2.261,2.261,0,0,1,1947.563,913.943Z" transform="translate(-1889.014 -813.074)" fill="#1389f0"/>
        <path id="Path_16717" data-name="Path 16717" d="M1939.274,903.032l-39.794-10.721a1.882,1.882,0,0,1-1.328-2.307s.561-4.075,4.86-20.032,5.861-19.762,5.861-19.762a1.882,1.882,0,0,1,2.307-1.328l39.794,10.721a1.883,1.883,0,0,1,1.328,2.308s-1.18,6.372-4.86,20.032-5.861,19.763-5.861,19.763A1.882,1.882,0,0,1,1939.274,903.032Z" transform="translate(-1883.552 -807.612)" fill="#c4cdc3" stroke="#fff" stroke-width="2"/>
        <g id="Group_8730" data-name="Group 8730" transform="translate(35.237 57.813)">
          <path id="Path_16718" data-name="Path 16718" d="M1941.21,877.969a4.713,4.713,0,1,1-3.419-5.721A4.713,4.713,0,0,1,1941.21,877.969Z" transform="translate(-1928.492 -872.103)" fill="#1c252d"/>
          <path id="Path_16719" data-name="Path 16719" d="M1933.224,882.365l-5.858,7.93a1.292,1.292,0,0,0,.723,2.021l6.677,1.683a1.293,1.293,0,0,0,1.6-1.363l-.82-9.612A1.292,1.292,0,0,0,1933.224,882.365Z" transform="translate(-1927.112 -874.895)" fill="#1c252d"/>
        </g>
      </g>
      <path id="Path_16720" data-name="Path 16720" d="M1962.4,784.755c-1.131-.272-2.227-.493-3.306-.652a8.8,8.8,0,0,1-.857,5.965c.576.1,1.153.22,1.74.37,13.966,3.466,18.154,13.645,18.732,23.288a26.329,26.329,0,0,1,5.318-1.917C1983.131,800.489,1978.177,788.561,1962.4,784.755Z" transform="translate(-1902.247 -783.672)" fill="#1389f0"/>
    </g>
    <g id="Group_20371" data-name="Group 20371" transform="translate(-15437.431 -2580.792)">
      <path id="Path_28983" data-name="Path 28983" d="M1322.214,356.083q-.486,5.813-.965,11.634c-.636,7.832-.951,16.5-3.312,24a75.693,75.693,0,0,1-3.35,8.732,58.023,58.023,0,0,1-25.812,26.9,9.135,9.135,0,0,1-4.946,1.216,9.5,9.5,0,0,1-3.572-1.024c-14.169-6.956-25.01-19.88-30.712-34.6a79.011,79.011,0,0,1-5.062-23.618,91.776,91.776,0,0,1,.064-12.16q.217-3.034.627-6.052a36.545,36.545,0,0,1,.61-4.968,3.127,3.127,0,0,1,.837-1.353c1.566-1.575,4.712-2.313,6.449-2.885a79.8,79.8,0,0,0,24.118-12.893q1.786-1.4,3.5-2.9c.649-.568,1.212-1.225,1.852-1.805a1.916,1.916,0,0,1,1.293-.551c1.784-.017,3.61,2.642,4.989,3.751a87.343,87.343,0,0,0,9.214,6.479,82.185,82.185,0,0,0,19.961,8.7c.931.278,3,.642,3.6,1.607.009.013.017.03.026.043C1323.656,347.688,1322.521,352.386,1322.214,356.083Z" transform="translate(12224.982 5805.09)" fill="#216cac"/>
      <path id="Path_28984" data-name="Path 28984" d="M1287.383,323.762v8.122l-7.507,20.144-24.177-2.556-5.523-4.678c1.566-1.575,4.712-2.313,6.449-2.885a79.794,79.794,0,0,0,24.118-12.893q1.787-1.4,3.5-2.9c.649-.568,1.212-1.225,1.852-1.805A1.916,1.916,0,0,1,1287.383,323.762Z" transform="translate(12221.429 5805.09)" fill="#1389f0"/>
      <path id="Path_28985" data-name="Path 28985" d="M1382.86,399.28c-.636,7.832-1.743,16.606-4.1,24.114a75.733,75.733,0,0,1-3.35,8.732,58.023,58.023,0,0,1-25.812,26.9,9.135,9.135,0,0,1-4.946,1.216v-7.622l8.643-11.976,23.025-59.789,6.12-4.835C1385.633,378.775,1383.176,395.4,1382.86,399.28Z" transform="translate(12164.163 5773.416)" fill="#1389f0"/>
      <path id="Path_28986" data-name="Path 28986" d="M1326.693,382.547c-.192,2.8-.5,5.736-.977,8.736a70.9,70.9,0,0,1-4.7,16.871,46.275,46.275,0,0,1-10.869,15.5,48.565,48.565,0,0,1-5.9,4.735,47.884,47.884,0,0,1-5.114,3.047c-.818.42-1.647.817-2.491,1.181a4.811,4.811,0,0,1-2.485.69,8.474,8.474,0,0,1-1.9-.751A44.084,44.084,0,0,1,1288,430.41a48.857,48.857,0,0,1-5.526-3.685,47.884,47.884,0,0,1-5.983-5.465,46.074,46.074,0,0,1-8.473-13.049,75.023,75.023,0,0,1-5.243-20.465,110.6,110.6,0,0,1-.759-17.665c.063-1.746.166-3.493.343-5.232.09-.881-.1-2.38.67-3.009a8.339,8.339,0,0,1,2.3-.87c2.572-.9,5.151-1.786,7.694-2.768a45.262,45.262,0,0,0,8.783-4.168c6.654-4.409,11.89-9.65,12.706-9.65s6.052,5.053,12.705,9.47c8.228,5.467,18.194,6.928,18.962,7.823S1327.5,370.807,1326.693,382.547Z" transform="translate(12214.293 5792.59)" fill="#fff"/>
      <path id="Path_28987" data-name="Path 28987" d="M1327.75,386.168c-.183,2.665-.476,5.468-.932,8.327a67.6,67.6,0,0,1-4.483,16.081,45.174,45.174,0,0,1-24.211,23.722,2.843,2.843,0,0,1-2.087,0,45.134,45.134,0,0,1-24.211-23.67c-3.727-8.641-5.223-18.157-5.581-27.512-.152-3.96-.038-7.944.161-11.9.048-.948.1-1.9.183-2.843a5.806,5.806,0,0,1,.138-1.518c.252-.684.97-.74,1.583-.946,1.424-.479,2.848-.952,4.266-1.449a70.6,70.6,0,0,0,10.886-4.567c.513-.284,1.019-.582,1.508-.906a82,82,0,0,0,8.524-6.4,16.68,16.68,0,0,1,3.185-2.614c.616-.3.943.039,1.42.4.532.4,1.039.83,1.545,1.261,1.159.988,2.291,1.99,3.511,2.9a12.284,12.284,0,0,0,1.483,1.109c.475.345.955.686,1.435,1.026q1.543,1.095,3.119,2.144c7.844,5.211,16.894,6.485,18.075,7.457S1328.515,374.976,1327.75,386.168Z" transform="translate(12211.73 5789.268)" fill="#c4cdc3"/>
      <path id="Path_28988" data-name="Path 28988" d="M1304.3,426.642a3.043,3.043,0,0,0,.339,2.242l10.03,20.008c.819,1.634,1.751,3.381,3.4,4.161a3.373,3.373,0,0,0,2.341.243c1.409-.4,2.26-1.8,2.953-3.092,5.251-9.788,9.389-20.219,15.687-29.368,1.545-2.245,1.03-5.1-2.306-4.7a7.253,7.253,0,0,0-4.724,3.008,21.531,21.531,0,0,0-2.59,5.119l-9.236,23.184a.845.845,0,0,1-.2.334c-.377.331-.905-.178-1.137-.622a72.866,72.866,0,0,1-3.888-9.113c-1.074-3.012-1.687-6.475-3.313-9.244a6.61,6.61,0,0,0-4.556-3.411C1305.569,425.189,1304.591,425.715,1304.3,426.642Z" transform="translate(12188.678 5749.118)" fill="#1c252d"/>
      <path id="Path_28989" data-name="Path 28989" d="M1302.413,358.521a1.965,1.965,0,0,0-.874.182,4.529,4.529,0,0,0-1.261.963c-2.615,2.536-5.407,5.561-8.718,7.216-3.529,2.311-7.486,3.483-11.173,5.441-3.051,1.62-5.274,3.995-5.906,7.463a38.633,38.633,0,0,0-.422,5.915,31.452,31.452,0,0,0,.11,6.159c.26,1.469,1.46,3.831,3.166,2.367,1.048-.9,1.593-2.59,2.088-3.84a37.413,37.413,0,0,1,2.433-5.413c3.69-6.227,9.787-10.5,14.975-15.378a46.835,46.835,0,0,0,5.292-5.564c.717-.939,1.791-2.235,1.882-3.475A1.784,1.784,0,0,0,1302.413,358.521Z" transform="translate(12207.011 5784.021)" fill="gray"/>
    </g>
    <path id="Path_34765" data-name="Path 34765" d="M1289.343,358.52a1.063,1.063,0,0,0-.473.1,2.45,2.45,0,0,0-.682.521,20.68,20.68,0,0,1-4.713,3.9c-1.908,1.249-4.047,1.883-6.041,2.942a5.672,5.672,0,0,0-3.193,4.035,20.906,20.906,0,0,0-.228,3.2,17.015,17.015,0,0,0,.06,3.33c.141.794.789,2.071,1.712,1.279a5.337,5.337,0,0,0,1.129-2.076,20.217,20.217,0,0,1,1.315-2.927c1.995-3.367,5.291-5.679,8.1-8.314a25.313,25.313,0,0,0,2.861-3.008,4.124,4.124,0,0,0,1.017-1.878A.965.965,0,0,0,1289.343,358.52Z" transform="translate(-2658.77 2374.025) rotate(45)" fill="gray"/>
  </g>
</svg>