<svg xmlns="http://www.w3.org/2000/svg" xmlns:xlink="http://www.w3.org/1999/xlink" width="433.971" height="458.693" viewBox="0 0 433.971 458.693">
  <defs>
    <clipPath id="clip-path">
      <rect id="Rectangle_6485" data-name="Rectangle 6485" width="433.971" height="458.693" fill="#340017"/>
    </clipPath>
  </defs>
  <g id="Group_19829" data-name="Group 19829" transform="translate(433.971 458.693) rotate(-180)" opacity="0.11">
    <g id="Group_7027" data-name="Group 7027" clip-path="url(#clip-path)">
      <path id="Path_16598" data-name="Path 16598" d="M0,16.409A3.818,3.818,0,0,0,.515,15.2a12.043,12.043,0,0,1,.614-1.112,23,23,0,0,0,.964-2.758A37.821,37.821,0,0,1,4.258,6.475,25.15,25.15,0,0,1,6.75,1.888C7.273,1.244,7.978.268,8.841.057,9.916-.206,10.926.5,11.879.835c.807.28,2.15.324,2.792.9a6.427,6.427,0,0,1,1.318,2.258,21.318,21.318,0,0,1,.818,2.887,19.614,19.614,0,0,1,.535,3.318c.063,2.036.346,4.57-.6,6.441a9.884,9.884,0,0,1-3.281,3.876c-1.02.648-2.444.448-3.638.423s-1.7-.819-2.5-1.565c-.775-.724-1.446-1.906-2.563-2.106-.659-.119-1.335.054-2-.071A10.123,10.123,0,0,0,.6,16.973" transform="translate(334.509 370.434)" fill="#340017"/>
      <path id="Path_16599" data-name="Path 16599" d="M148.714,31.422c4.1,2.438-1.885,6.593-6.064,4.193-4.662-2.678-11.323-4.271-16.9-5.727-5.015-1.309-9.568-2.779-14.8-3.608-10.208-1.618-21.167-.318-31.525-.171-2.268.032-4.6.171-6.956.4q-.619.138-1.236.278c-1.123.257-2.249.53-3.4.715-1.188.191-2.4.272-3.568.526-2.318.5-4.64,1.034-6.948,1.564A33.05,33.05,0,0,0,51.332,31.6c-2.268,1-4.459,2.12-6.6,3.281a57.408,57.408,0,0,0-9.593,6.853c-2.5,2.293-7.37,5.979-8.386,9.086.222.081.438.168.645.261a17.48,17.48,0,0,1,4.576,2.657,4.754,4.754,0,0,1,1.765,3.542,2.538,2.538,0,0,1-1.107,3.093,3.239,3.239,0,0,1-.642.927c-.053.048-.118.083-.176.126A2.661,2.661,0,0,1,28,61.657c-.373-.428-.477-.888-.844-1.4a6.063,6.063,0,0,0-1.421-1.261,17.4,17.4,0,0,0-3.554-1.974l-1.23-.506c-.941-.284-1.891-.554-2.839-.8a25.275,25.275,0,0,1-4.921-1.667c-1.529-.747-3.006-1.562-4.464-2.375A11.615,11.615,0,0,1,5.462,49c-.9-1.047-1.983-2.051-2.75-3.152-.034-.05-.059-.1-.093-.151a10.156,10.156,0,0,1-2.5-4.523,11.211,11.211,0,0,1-.12-2.3,5.03,5.03,0,0,1,.249-2.033,3.63,3.63,0,0,1,4.1-2.259A2.151,2.151,0,0,1,6.049,36c-.01-.031.057.229.081.343.035.084.086.214.1.238a5.95,5.95,0,0,1,.273.987A11.29,11.29,0,0,0,7.318,41a21.048,21.048,0,0,0,2.2,3.348,9.086,9.086,0,0,0,1.053,1.191c.533.456,1.236.86,1.829,1.279a15.266,15.266,0,0,0,4.2,1.743c.118.037.24.067.359.1a35.773,35.773,0,0,1,2.089-3.585,30.98,30.98,0,0,1,3.972-5.447c.716-.777,1.467-1.546,2.156-2.334a33.175,33.175,0,0,1,2.488-2.413c.924-.858,1.79-1.759,2.658-2.646.843-.863,1.873-1.606,2.744-2.452.727-.7,1.558-1.316,2.254-2.035.812-.838,1.86-1.527,2.7-2.352a19.514,19.514,0,0,1,2.736-2.219c1.107-.755,2.049-1.624,3.1-2.421,1.985-1.512,3.712-3.187,5.779-4.645,2.165-1.528,4.215-3.1,6.549-4.5,1.016-.612,2.061-1.2,3.108-1.786,1.029-.577,2.255-.844,3.292-1.392,1.088-.573,1.99-1.294,3.1-1.85,1.226-.611,2.568-1.088,3.777-1.716A32.6,32.6,0,0,1,77.62,2.074C80.438,1.46,83.329.926,86.22.517A77.343,77.343,0,0,1,95.1.012a22.53,22.53,0,0,1,4.2.233,13.344,13.344,0,0,0,1.867.112,27.355,27.355,0,0,1,2.819.266c1.347.173,2.745.115,4.08.306.586.084,1.076.294,1.638.428.711.171,1.47.226,2.2.357a46.674,46.674,0,0,1,4.645,1.107c.219.048.441.094.656.143,7.47,1.658,13.929,5.115,19.652,8.778,5.193,3.324,11.89,7.514,12.663,12.709a2.02,2.02,0,0,1-.663,1.878,33.493,33.493,0,0,1,2.663,2.99c1.11,1.392-1.211,2.663-2.8,2.1m-.86-.593c-.082-.1-.168-.205-.251-.309a1.765,1.765,0,0,1-.25.17c.258.136.517.271.77.41a1.791,1.791,0,0,1-.27-.272" transform="translate(200.133 292.821)" fill="#340017"/>
      <path id="Path_16600" data-name="Path 16600" d="M143.242,31.74c-3.9-1.684-6.955-10.381-10.041-13.659a6.05,6.05,0,0,0-2.514-1.834c-1.639-.5-3.376.311-4.86,1.134C105.16,28.848,90.16,47.815,69.765,59.706a48.887,48.887,0,0,1-12.329,5.382c-5.95,1.528-12.221,1.393-18.381,1.14-4.252-.175-8.607-.423-12.514-2.018-4.891-2-8.58-5.884-12.1-9.658l-6.285-6.73C4.584,44,.58,39.491.087,34.2c-.5-5.425,1.135-6.019,6.308-5.687,4.9.314,9.8.609,14.706.8a215.068,215.068,0,0,0,29.373-.56C65.93,27.246,81.393,23.189,94.31,15.1c-12.624.35-25.378-.4-36.477-5.241-4.214-1.839-1.928-7.916,2.549-7.164C67.666,3.914,75.213,5.811,82.636,6c8.1.2,15.991-1.909,23.708-3.976,4.043-1.082,9.986-3.721,13.6-.411.126.116.242.237.354.36a15.889,15.889,0,0,1,4,.475c11.164,2.847,20.64,18.684,18.945,29.292" transform="translate(191.07 361.253)" fill="#340017"/>
      <path id="Path_16601" data-name="Path 16601" d="M433.764,118.629l.206,3.35-3.553.549c-.813.125-1.614.235-2.4.343-1.622.22-3.155.43-4.568.763a60.839,60.839,0,0,0-6.693,2.089,124.785,124.785,0,0,0-24.8,12,28.737,28.737,0,0,0-11.833,14.563c-.038.1-.062.177-.076.226l.152.752-.306.909a34.552,34.552,0,0,0-1.565,7.016l-.8,7.482a30.376,30.376,0,0,1-.122,10.431,45.549,45.549,0,0,1-7.459,17.5l0,0-.018.02q-1.011,1.485-2.109,2.92c-3.644,6.066-5.364,15.021-6.139,23.259l-.009.118c-.01.146-.018.286-.021.419-.021,1.523-.031,3.047-.042,4.571-.022,2.94-.042,5.98-.135,8.988l-.156,5.179c-.013.415-.026.838-.038,1.254v.005h0c-.257,8.521-.527,17.293-.953,25.942-.324,6.569-.78,13.224-1.22,19.661-.254,3.708-.508,7.416-.739,11.124-.161,2.588-.3,5.177-.429,7.766-.2,3.88-.408,7.892-.708,11.853-.482,6.35-1.161,12.71-1.817,18.862-.1.953-.2,1.907-.3,2.863-.4,3.949-.816,8.033-1.572,12.067-.968,5.163-2.165,10.337-3.325,15.341-.421,1.819-.842,3.637-1.252,5.458-3.533,15.649-7.958,28.175-13.925,39.419A84.285,84.285,0,0,1,297.128,449.8c-16.792,8.041-35.4,9.01-53.017,8.877-38.663-.31-69.971-8.527-93.054-24.422-14.691-10.117-27.217-24.335-38.292-43.467-6.014-10.387-9.4-19.424-10.656-28.439-1.13-8.106-1.173-16.344-1.215-24.311-.011-2.278-.024-4.552-.06-6.818-.034-2.061-.057-4.134-.081-6.216-.216-19.016-.439-38.651-8.46-55.826a115.194,115.194,0,0,1-38.62-4.118C35.61,260,21.251,251.736,9.775,239.807A33.95,33.95,0,0,1,.016,216.532c-.255-9.456,2.572-18.636,8.643-28.065.96-1.488,2.047-3.005,3.233-4.508,8.2-10.391,17.831-15.71,29.445-16.263,3.639-.173,5.713-1.794,6.931-5.419a42.878,42.878,0,0,0,1.834-7.036,27.7,27.7,0,0,1,10.751-17.909l.4-.319c2.225-1.762,4.526-3.585,6.736-5.406a19.351,19.351,0,0,0,6.147-8.321c.558-1.515,1.176-3,1.774-4.429.528-1.269,1.028-2.466,1.489-3.686A75.956,75.956,0,0,1,97.319,85.931a66.605,66.605,0,0,1,6.976-5.369l.32-.225c1.123-.787,2.263-1.484,3.366-2.157,1.163-.71,2.261-1.38,3.259-2.106,2.305-1.675,2.306-2.516,1.093-4.407a13.959,13.959,0,0,1-1.574-3l-.094-.275c-.785-2.28-1.6-4.638-2.195-7.086a7.845,7.845,0,0,1,1.713-7.107c.086-.1.17-.2.257-.306.8-.974,3.246-3.94,7.155-2.6,2.448.839,3.372,3.152,3.925,4.534l.037.093c1.024,2.556,2.017,5.125,3.01,7.693.763,1.974,1.526,3.948,2.3,5.917a2.693,2.693,0,0,0,1.774,1.64,15.248,15.248,0,0,1,4.4,2.481,6.411,6.411,0,0,1,2.325,6.2,6.857,6.857,0,0,1-4.6,5.1,10.907,10.907,0,0,1-3.45.567,13.781,13.781,0,0,0-6.305,1.78,31.1,31.1,0,0,0-4.777,2.926c-8.3,6.642-13.825,12.4-17.933,18.667-7.492,11.431-11.382,24.267-11.9,39.243a69.393,69.393,0,0,0,5.831,29.538,4.742,4.742,0,0,0,5.513,3.019,18.691,18.691,0,0,0,4.633-1.218,69.967,69.967,0,0,0,19.421-12.682c3.456-3.117,6.453-7.216,9.431-12.9a.76.76,0,0,0,.076-.755A79.551,79.551,0,0,1,129,121.961c1.241-9.781,4.572-17.745,10.186-24.346l.344-.4c1.6-1.888,3.262-3.841,5.125-5.671,2.687-2.64,5.476-5.236,8.174-7.746l2.385-2.223c2.783-2.6,3.877-5.1,3.543-8.1-.1-.892-.186-1.788-.272-2.682-.165-1.735-.321-3.373-.579-4.991-.41-2.583-.871-5.219-1.317-7.766-.505-2.883-1.028-5.863-1.485-8.821a64.456,64.456,0,0,1-.683-8.05,17.054,17.054,0,0,1,2.151-9c.957-1.694,3-3.5,5.594-3.017a6.325,6.325,0,0,1,4.382,3.349,19.167,19.167,0,0,1,1.618,4.742c1.041,5.714,2.106,11.893,3.257,18.889a35.326,35.326,0,0,0,2.441,9.144,5.68,5.68,0,0,0,4.9,3.693,38.088,38.088,0,0,0,5.922-.02l.378-.02c1.574-.083,3.138-.224,4.794-.374,1.238-.111,2.476-.223,3.717-.309a7.15,7.15,0,0,1,6.657,2.933l2.267,3.075-3.24,2.162c-.174.115-.335.247-.5.374a8.2,8.2,0,0,1-3.067,1.678,76.09,76.09,0,0,1-8.3,1.765l-.348.051a20.472,20.472,0,0,0-6.576,1.667c-10.96,5.8-19.454,12.765-25.967,21.308-14.456,18.969-16.158,38.519-5.2,59.766.026.051.05.1.07.13.054.008.121.017.2.026a144.35,144.35,0,0,1,24.221,4.386,43.622,43.622,0,0,0,20.932,1.1c6.227-1.286,10.4-2.7,13.326-6.092a30.448,30.448,0,0,0,4.377-6.443,108.453,108.453,0,0,0,4.2-10.47l.3-.831c5.006-13.805,7.99-25.474,9.387-36.722a94.251,94.251,0,0,1,5.361-21.855,18.319,18.319,0,0,1,9.806-10.47c1.51-.692,3.035-1.3,4.509-1.884,1.119-.444,2.175-.863,3.219-1.316.543-.235,1.089-.463,1.634-.694a42.615,42.615,0,0,0,5.152-2.429c4-2.37,4.91-5.229,2.947-9.268a55.6,55.6,0,0,0-4.181-6.787A112.3,112.3,0,0,1,243.6,33.427a168,168,0,0,1-5.784-16.763,32.124,32.124,0,0,0-2.7-6.806c-.049-.087-.1-.175-.162-.265a6.1,6.1,0,0,1-1.144-3.526,6.826,6.826,0,0,1,2.3-4.91A5.824,5.824,0,0,1,239.746,0,6.769,6.769,0,0,1,242.9.744a11.786,11.786,0,0,1,3.876,3.341l.285.395a68.658,68.658,0,0,1,4.962,7.561c1.935,3.593,3.748,7.281,5.5,10.848q1.032,2.1,2.071,4.191a34.858,34.858,0,0,0,8.293,10.981c4.627,4.033,8.939,4.551,14.417,1.731,1.923-.991,3.78-2.1,5.744-3.271,1.176-.7,2.354-1.4,3.544-2.081.928-.526,1.847-1.065,2.767-1.6,2.548-1.494,5.182-3.038,8-4.339,11.448-5.286,22.888-4.327,33.083,2.773,2.1,1.459,4.079,3.033,5.993,4.556.907.721,1.815,1.442,2.733,2.15q1.229.948,2.449,1.906c1.962,1.536,3.993,3.123,6.024,4.57a19.228,19.228,0,0,0,9.115,3.69c1.971.223,4.015.39,5.992.551.739.06,1.477.12,2.214.183,5.681.485,10.148,2.186,13.653,5.2,4.639,3.987,7.668,7.93,9.537,12.409,1.13,2.709,2.369,5.456,3.567,8.114l.218.484c.134.3.358.654,1.338,1.152a57.808,57.808,0,0,1,8.354,4.89c11.73,8.676,20.494,20.241,26.791,35.354a4.885,4.885,0,0,1,.346,2.081ZM399.677,92.165c-9.4-6.749-19.846-8.829-31.931-6.357a18.565,18.565,0,0,0-8.016,3.844q-1.478,1.2-2.943,2.4c-1.542,1.263-3.085,2.528-4.646,3.769-1.512,1.2-3.143,2.42-4.847,3.616a32.522,32.522,0,0,1-18.331,5.99,86.372,86.372,0,0,1-20.547-1.71A35.555,35.555,0,0,1,296.731,99c-.379-.242-.761-.478-1.144-.715-.922-.571-1.874-1.159-2.819-1.832-8.829-6.284-19.968-4.361-27.09.334-5.18,3.413-9.385,8.063-13.235,14.632-3.161,5.392-5.526,11.571-7.668,20.032l-.365,1.443a191.812,191.812,0,0,1-6.767,22.739,62.7,62.7,0,0,1-16.928,24.153c-8.281,7.4-18.293,10.188-29.756,8.286a160.259,160.259,0,0,1-19.2-4.816c-1.714-.506-3.428-1.014-5.148-1.5l-.588-.168c-5.231-1.491-10.64-3.033-15.976-4.119a23.331,23.331,0,0,0-17.728,3.435,56.179,56.179,0,0,0-12.239,10.57c-3.213,3.711-6.61,7.685-9.727,11.865a81.133,81.133,0,0,1-18.111,17.536c-6.883,4.939-14.683,10.535-23.73,14.249a98.305,98.305,0,0,1-36.9,7.342,88.668,88.668,0,0,0,16.058,7.915,103.2,103.2,0,0,0,41.3,6.7c1.748-.067,3.6-.2,5.841-.408l2.4-.228,1.662,2.373a51.441,51.441,0,0,0,5.373,6.837l.523.524.282.669c6.633,15.743,7.9,32.835,8.285,48.959.145,6.09.235,12.275.322,18.256q.083,5.722.18,11.445c.17,9.346.655,19.241,4.463,28.441a121.825,121.825,0,0,0,33.319,45.326c12.927,10.818,29.6,18.54,49.557,22.954,22.4,4.952,45.929,6.108,66.261,3.26,22.458-3.149,40.274-14.506,51.517-32.843a127.617,127.617,0,0,0,14.55-34.87,266.053,266.053,0,0,0,7.187-40.822c1.531-14.992,2.192-29.841,2.71-47.524.174-5.965.417-12.02.652-17.875.286-7.151.585-14.547.758-21.808.169-7.088.149-14.322.13-21.318,0-.28,0-.559,0-.84a143.14,143.14,0,0,0-12.545,16.325,48.372,48.372,0,0,1-18.486,16.613c-5.464,2.761-10.575,3.652-15.625,2.721a20.451,20.451,0,0,1-11.394-6.431l-6.065-6.308h9.026c.3,0,.541-.005.755-.01a12.4,12.4,0,0,1,1.53.036c9.646.952,17.429-2.164,23.806-9.536,2.261-2.614,4.295-5.37,6.448-8.286,1.064-1.443,2.129-2.886,3.22-4.308q1.27-1.653,2.52-3.319c2.281-3.018,4.639-6.139,7.161-9.12a31.634,31.634,0,0,1,7.906-6.612c6.614-8.135,15.329-14.893,19.6-24.492,3.632-8.163,1.9-17.36-3.5-24.464a35.22,35.22,0,0,0-15.723-11.2,23.972,23.972,0,0,0-11.227,2.323,67.076,67.076,0,0,0-14.92,9.952,149.946,149.946,0,0,0-14.514,14.6l-.755.831c-4.719,5.2-9.587,10.4-14.3,15.443l-3.679,3.941a10.62,10.62,0,0,1-4.062,2.69l-6.676,2.567,1.229-6.7c.039-.218.074-.438.11-.657a18.639,18.639,0,0,1,.389-1.948A44.446,44.446,0,0,1,282.9,177.09c1.427-1.9,2.971-3.727,4.43-5.434q8.222-9.614,16.486-19.2a100.245,100.245,0,0,1,14.789-14.443,31.046,31.046,0,0,1,14.81-6.252,27.574,27.574,0,0,1,18.747,3.776c3.615,2.217,7.213,4.54,10.694,6.788q1.766,1.141,3.534,2.278a58.169,58.169,0,0,1,14.03-15.5,70.195,70.195,0,0,1,14.7-9.263c5.59-2.552,11.17-5.124,16.806-7.721l3.791-1.746a57.3,57.3,0,0,0-16.044-18.217" transform="translate(0 0)" fill="#340017"/>
    </g>
  </g>
</svg>