<svg xmlns:xlink="http://www.w3.org/1999/xlink" xmlns="http://www.w3.org/2000/svg" width="443.902" height="512.192" viewBox="0 0 443.902 512.192">
  <g id="Group_6979" data-name="Group 6979" transform="translate(-897 -5013)" opacity="0.05">
    <g id="Group_6978" data-name="Group 6978" transform="translate(897 5013)">
      <path id="Path_16582" data-name="Path 16582" d="M759.609,539.218v-25.56C759.609,428.931,690.678,360,605.951,360S452.293,428.931,452.293,513.658v25.56A111.149,111.149,0,0,0,416.557,720.37L541.821,845.623a90.693,90.693,0,0,0,128.271,0L795.345,720.37a111.149,111.149,0,0,0-35.736-181.152Zm-290.243-25.56a136.585,136.585,0,1,1,273.17,0v19.985a111.372,111.372,0,0,0-25.61-3.023V513.658a110.975,110.975,0,0,0-221.951,0v16.968a111.063,111.063,0,0,0-25.61,3.023Zm230.487,18.234a110.319,110.319,0,0,0-61.7,31.279l-32.2,32.207-32.2-32.207a110.318,110.318,0,0,0-61.7-31.279V513.658a93.9,93.9,0,1,1,187.8,0Zm83.421,176.4L658.016,833.558a73.636,73.636,0,0,1-104.129,0L428.628,708.294A94.08,94.08,0,0,1,561.679,575.248l38.237,38.237a8.532,8.532,0,0,0,12.071,0l38.237-38.237A94.08,94.08,0,1,1,783.274,708.294Zm0,0" transform="translate(-384 -360)"/>
      <path id="Path_16583" data-name="Path 16583" d="M426.223,568.52l-16.551,4.211a76.833,76.833,0,0,0,20.175,35.336l65.313,65.321,12.071-12.078L441.923,596a59.774,59.774,0,0,1-15.7-27.482Zm0,0" transform="translate(-373.146 -271.846)"/>
      <path id="Path_16584" data-name="Path 16584" d="M631.7,607.13l11.355-11.349,12.071,12.067L643.771,619.2Zm0,0" transform="translate(-279.282 -260.321)"/>
      <path id="Path_16585" data-name="Path 16585" d="M640.182,507.91l-6.448,15.807a59.933,59.933,0,0,1,19.819,97.9l12.071,12.07a77,77,0,0,0-25.442-125.78Zm0,0" transform="translate(-278.422 -297.469)"/>
      <path id="Path_16586" data-name="Path 16586" d="M595.365,600.683a42.682,42.682,0,1,0-70.494,32.374l-6.3,69.292a8.531,8.531,0,0,0,8.5,9.309h51.219a8.54,8.54,0,0,0,8.5-9.309l-6.3-69.292a42.592,42.592,0,0,0,14.867-32.374Zm-28.528,21.341a8.544,8.544,0,0,0-3.773,7.881l5.88,64.68H536.42l5.88-64.68a8.539,8.539,0,0,0-3.773-7.881,25.609,25.609,0,1,1,28.31,0Zm0,0" transform="translate(-330.731 -276.293)"/>
    </g>
  </g>
</svg>