<svg xmlns="http://www.w3.org/2000/svg" xmlns:xlink="http://www.w3.org/1999/xlink" id="eq84yprpb9lh1" viewBox="0 0 42.078000 62.008000" shape-rendering="geometricPrecision" text-rendering="geometricPrecision" width="42.078"  height="62.008" ><style><![CDATA[#eq84yprpb9lh6_to {animation: eq84yprpb9lh6_to__to 1000ms linear infinite normal forwards}@keyframes eq84yprpb9lh6_to__to { 0% {transform: translate(-649.360000px,-269.330000px);animation-timing-function: cubic-bezier(0.615000,0.040000,0.425000,0.955000)} 50% {transform: translate(-649.360000px,-254.454880px);animation-timing-function: cubic-bezier(0.615000,0.040000,0.425000,0.955000)} 100% {transform: translate(-649.360000px,-269.330000px)} }]]></style><g id="eq84yprpb9lh2" transform="matrix(1 0 0 1 -599.77499999999998 -227.33300000000000)"><g id="eq84yprpb9lh3" transform="matrix(1 0 0 1 599.77999999999997 227.33000000000001)"><path id="eq84yprpb9lh4" d="M622.186000,233.333000L619.443000,233.333000C613.551617,233.333000,608.775552,238.108617,608.775000,244L608.775000,266.676000C608.776104,272.566831,613.552169,277.341552,619.443000,277.341000L622.186000,277.341000C628.076602,277.341000,632.852343,272.566602,632.854000,266.676000L632.854000,244C632.851792,238.109303,628.076697,233.334656,622.186000,233.333000ZM630.253000,266.675000C630.251896,271.129662,626.640662,274.740448,622.186000,274.741000L619.443000,274.741000C617.303499,274.741265,615.251520,273.891606,613.738477,272.378938C612.225433,270.866269,611.375265,268.814501,611.375000,266.675000L611.375000,244C611.375000,241.860417,612.225083,239.808495,613.738184,238.295769C615.251285,236.783044,617.303417,235.933469,619.443000,235.934000L622.186000,235.934000C626.640891,235.934000,630.252448,239.545109,630.253000,244Z" transform="matrix(1 0 0 1 -599.77999999999997 -227.33000000000001)" fill="#000000" stroke="none" stroke-width="1"/></g><g id="eq84yprpb9lh5" transform="matrix(1 0 0 1 599.77999999999997 227.33000000000001)"><g id="eq84yprpb9lh6_to" transform="translate(-649.360000,-269.330000)"><path id="eq84yprpb9lh6" d="M670.400000,283.772000C669.256057,283.772552,668.329000,284.700056,668.329000,285.844000L668.329000,290.556000C668.329000,291.700058,669.256442,292.627500,670.400500,292.627500C671.544558,292.627500,672.472000,291.700058,672.472000,290.556000L672.472000,285.844000C672.472000,285.294471,672.253701,284.767450,671.865125,284.378875C671.476550,283.990299,670.949529,283.772000,670.400000,283.772000Z" transform="translate(0,0)" fill="#000000" stroke="none" stroke-width="1"/></g></g></g></svg>