<svg xmlns:xlink="http://www.w3.org/1999/xlink" xmlns="http://www.w3.org/2000/svg" id="Group_8369" data-name="Group 8369" width="18.858" height="5.902" viewBox="0 0 18.858 5.902">
  <defs>
    <style>
      .cls-1 {
        fill: #215690;
      }
    </style>
  </defs>
  <path id="Path_5059" data-name="Path 5059" class="cls-1" d="M33.208,100.23l-.946,5.89h1.513l.946-5.89Zm4.563,2.4c-.529-.261-.853-.437-.853-.7.006-.243.274-.491.872-.491a2.633,2.633,0,0,1,1.127.218l.137.061.206-1.232a3.818,3.818,0,0,0-1.358-.243c-1.494,0-2.546.777-2.552,1.888-.012.82.753,1.275,1.326,1.548s.784.461.784.71c-.006.382-.473.558-.909.558a3.077,3.077,0,0,1-1.42-.3l-.2-.091-.212,1.281a4.724,4.724,0,0,0,1.687.3c1.588,0,2.621-.765,2.634-1.949C39.047,103.533,38.644,103.036,37.771,102.629Zm5.367-2.381h-1.17a.75.75,0,0,0-.791.474l-2.247,5.4h1.588l.437-1.169h1.776l.227,1.173h1.4ZM41.4,103.772c.031,0,.609-1.908.609-1.908l.461,1.908ZM31,100.23l-1.482,4-.161-.789a4.4,4.4,0,0,0-2.092-2.391l1.357,5.063h1.6l2.379-5.883H31Z" transform="translate(-25.5 -100.23)"/>
  <path id="Path_5060" data-name="Path 5060" class="cls-1" d="M3.356,101.006a.988.988,0,0,0-.984-.758H.024L0,100.357A5.762,5.762,0,0,1,3.867,103.5Z" transform="translate(0 -100.247)"/>
</svg>