<svg xmlns="http://www.w3.org/2000/svg" xmlns:xlink="http://www.w3.org/1999/xlink" width="1929" height="292" viewBox="0 0 1929 292">
  <defs>
    <clipPath id="clip-path">
      <rect id="Rectangle_11049" data-name="Rectangle 11049" width="1929" height="292" transform="translate(-5596 278)" fill="#fff"/>
    </clipPath>
  </defs>
  <g id="Mask_Group_7742" data-name="Mask Group 7742" transform="translate(5596 -278)" clip-path="url(#clip-path)">
    <path id="Union_7" data-name="Union 7" d="M16042.512,655.063h-2.45V540.489s283.177,113.978,498.009,11.35c98.609-47.107,225.275-98.076,372.721-56.185s327.234,7.095,433-27.594c386.359-126.725,625.273-34.788,625.273-34.788V655.86h-.521V1448.8s-178.428-1.952-328.258-115.421-177.947,166.471-253.832,181.53c-42.867,8.505-98.471,10.119-176.006,100.109-53.322,61.9-111.459,180.516-332.256,202.278-113.133,11.151-200.119-22.906-286.156-56.964-81.879-32.412-162.9-64.821-264.773-58.262-208.918,13.45-284.748,169.027-284.748,169.027Z" transform="translate(-21636.121 -123.09)" fill="#f5f5f5"/>
  </g>
</svg>